<?xml version="1.0" encoding="UTF-8" standalone="no"?>
<svg width="20px" height="20px" viewBox="0 0 20 20" version="1.1" xmlns="http://www.w3.org/2000/svg" xmlns:xlink="http://www.w3.org/1999/xlink">
    <!-- Generator: Sketch 3.6.1 (26313) - http://www.bohemiancoding.com/sketch -->
    <title>Box Highlight 2</title>
    <desc>Created with Sketch.</desc>
    <defs></defs>
    <g id="Page-1" stroke="none" stroke-width="1" fill="none" fill-rule="evenodd">
        <g id="Box-Highlight-2" transform="translate(0.000000, 1.000000)">
            <path d="M3.15707624,13.3734979 L1.45865903,15.0719152 L1.79564812,15.4090995 L0,17.2045524 L3.05594046,18.6185008 L4.03059257,17.6438487 L4.36758166,17.9808378 L6.06599886,16.2826158 C6.42602661,16.4142095 6.84618913,16.3361123 7.13456276,16.0477387 L19.1425813,4.03972017 C19.538729,3.64357251 19.538729,2.99907599 19.1425813,2.60292833 L16.8367637,0.297110746 C16.4406161,-0.0990369154 15.7959243,-0.0990369154 15.3999719,0.297110746 L3.39195334,12.3051293 C3.10357971,12.5935029 3.02528734,13.013275 3.15707624,13.3734979 L3.15707624,13.3734979 Z M4.36738642,16.3845326 L3.05476901,15.0719152 L3.8884558,14.2382284 L5.20107322,15.5508458 L4.36738642,16.3845326 L4.36738642,16.3845326 Z M4.26976501,13.0232323 L6.99262124,10.3007666 L9.13873021,12.4468756 L6.41606922,15.1695366 L4.26976501,13.0232323 L4.26976501,13.0232323 Z M2.81481559,17.2633204 L1.94168975,16.8591678 L2.59360549,16.2072521 L3.23224472,16.8458913 L2.81481559,17.2633204 L2.81481559,17.2633204 Z M18.2645744,3.32103139 L15.5419134,6.04369237 L13.3956092,3.89758341 L16.1182702,1.17492242 L18.2645744,3.32103139 L18.2645744,3.32103139 Z" id="Highlighter" fill="#333333"></path>
        </g>
    </g>
</svg>