<svg xmlns="http://www.w3.org/2000/svg" xmlns:xlink="http://www.w3.org/1999/xlink" width="175" height="226" viewBox="0 0 175 226" version="1"><defs><path d="M107 4C107 4 107 4 107 4L108 6 171 69C171 69 171 69 173 70L173 70 133 70C130 55 122 45 107 40L107 4ZM99 2C94 1 89 0 83 0L43 0 0 0 0 226 83 226C144 226 175 197 175 140L175 86C175 83 175 80 175 78L134 78C134 79 134 80 134 81L134 142C134 171 117 186 84 186L41 186 41 37 84 37C89 37 94 37 99 38L99 2Z" id="letterD"/></defs><g id="Page-1" stroke="none" stroke-width="1" fill="none" fill-rule="evenodd"><mask id="mask-2" fill="white"><use xlink:href="#letterD"/></mask><use id="D" fill="#FFFFFF" xlink:href="#letterD"/><path d="M107 4L107 70 174 70 107 4Z" id="Fold" fill="#FFFFFF"/></g></svg>